<?xml version="1.0" encoding="UTF-8"?>
<svg xmlns="http://www.w3.org/2000/svg" version="1.1" viewBox="0 0 300 300">
  <defs>
    <style>
      .cls-1 {
        fill: none;
      }

      .cls-2 {
        fill: #589690;
      }
    </style>
  </defs>
  <!-- Generator: Adobe Illustrator 28.6.0, SVG Export Plug-In . SVG Version: 1.2.0 Build 709)  -->
  <g>
    <g id="Layer_1">
      <g>
        <g>
          <path class="cls-2" d="M146.32,30.62c1.31-.04,2.63-.07,3.94-.07,0-.58.01-1.15.02-1.73-1.68,0-3.36.04-5.03.11-.67.21-1.13.76-1.1,1.39.05,1.14.1,2.28.15,3.42,1.99-.1,3.98-.15,5.97-.15,0-.57.01-1.14.01-1.7-1.31,0-2.61.02-3.92.07-.01-.44-.02-.89-.03-1.33h0Z"/>
          <path class="cls-2" d="M102.44,38.81c-1.56.68-3.11,1.4-4.65,2.15.25.51.5,1.02.75,1.53,1.2-.59,2.42-1.15,3.63-1.7.18.4.35.8.53,1.2-1.21.54-2.42,1.1-3.62,1.69.24.5.48,1,.72,1.5,1.82-.89,3.67-1.73,5.53-2.52-.43-1.04-.87-2.07-1.3-3.11-.24-.57-.89-.86-1.59-.75h0Z"/>
          <path class="cls-2" d="M93.2,45.27c1.18-.65,2.36-1.28,3.56-1.89-.25-.51-.51-1.01-.76-1.52-1.52.78-3.03,1.59-4.53,2.44-.52.49-.69,1.2-.39,1.73.56.97,1.11,1.94,1.67,2.91,1.77-1.02,3.56-2,5.37-2.92-.25-.5-.5-.99-.75-1.49-1.19.61-2.37,1.23-3.54,1.88-.21-.38-.42-.76-.63-1.14Z"/>
          <path class="cls-2" d="M56.52,74.53c-1.14,1.46-2.26,2.95-3.35,4.48.45.32.91.64,1.36.96.85-1.2,1.72-2.37,2.61-3.53.34.26.68.52,1.01.78-.88,1.15-1.75,2.32-2.6,3.51.44.31.89.63,1.33.94,1.29-1.81,2.63-3.57,4-5.28-.86-.69-1.72-1.38-2.57-2.06-.47-.38-1.21-.28-1.8.2h0Z"/>
          <path class="cls-2" d="M156.79,28.98c-1.68-.09-3.36-.14-5.04-.16,0,.58-.02,1.15-.03,1.73,1.31.01,2.63.05,3.94.11-.02.44-.05.89-.07,1.33-1.31-.06-2.61-.09-3.92-.11-.01.57-.02,1.14-.04,1.7,1.99.02,3.98.1,5.97.22.08-1.14.17-2.29.25-3.43.05-.63-.4-1.19-1.06-1.4h0Z"/>
          <path class="cls-2" d="M146.62,24.49c-.01-.6-.02-1.19-.03-1.79-7.34.24-14.67,1.12-21.89,2.63-.95.2-1.58.98-1.42,1.73.45,2.11.9,4.21,1.35,6.32,4.95-1.1,9.96-1.88,14.99-2.33-.05-.57-.09-1.15-.14-1.72-4.38.4-8.74,1.04-13.06,1.92-.28-1.42-.55-2.85-.83-4.27,6.93-1.42,13.97-2.24,21.02-2.47h0Z"/>
          <path class="cls-2" d="M127.47,29.59c4.35-.84,8.74-1.43,13.15-1.79.1,1.46.21,2.91.31,4.37-11.37.91-22.64,3.47-33.38,7.69-.15-.38-.29-.76-.44-1.14h0c-.21-.53-.41-1.06-.61-1.59h0c-.17-.44-.34-.87-.5-1.31,4.16-1.64,8.4-3.04,12.69-4.2-.14-.55-.29-1.1-.43-1.65-5.08,1.38-10.09,3.08-14.99,5.12.81,1.98,1.61,3.96,2.42,5.94.29.7,1.19,1,2.01.67,10.89-4.33,22.34-6.92,33.88-7.79.87-.07,1.55-.73,1.51-1.5-.11-2.16-.23-4.33-.34-6.49-5.22.33-10.43.99-15.59,1.99.1.56.21,1.13.31,1.69h0Z"/>
          <path class="cls-2" d="M150.3,26.28c.02-2.19.04-4.39.06-6.58-8.6.03-17.2.92-25.65,2.66-.28-1.43-.56-2.85-.83-4.28,7.46-1.54,15.03-2.44,22.62-2.7-.01-.58-.02-1.15-.04-1.73-8.51.29-17,1.38-25.34,3.27.45,2.11.9,4.21,1.35,6.32.16.75,1.06,1.18,2.01.98,7.75-1.63,15.63-2.53,23.53-2.7.01,1.46.03,2.93.04,4.39-1.35.03-2.69.08-4.04.15.02.6.04,1.19.07,1.79,1.51-.08,3.02-.13,4.53-.15.92-.01,1.67-.64,1.68-1.42h0Z"/>
          <path class="cls-2" d="M107.66,36.68c.2.53.4,1.07.6,1.6,4.78-1.82,9.65-3.32,14.59-4.49-.48-2.1-.97-4.19-1.45-6.29-.17-.75-1.07-1.17-2.01-.93-7.15,1.83-14.18,4.29-20.97,7.39.24.54.48,1.07.73,1.61,6.52-2.97,13.26-5.35,20.12-7.13.35,1.4.7,2.81,1.06,4.21-4.28,1.11-8.51,2.45-12.66,4.03h0Z"/>
          <path class="cls-2" d="M98.67,39.3c1.39-.66,2.79-1.29,4.2-1.89-.23-.54-.46-1.08-.69-1.62-1.26.54-2.5,1.1-3.74,1.68-.6-1.31-1.2-2.61-1.8-3.92,7.27-3.42,14.8-6.11,22.49-8.08.94-.24,1.57-1.03,1.4-1.78-.48-2.1-.97-4.19-1.45-6.29-8.4,2.04-16.63,4.89-24.57,8.55.23.52.46,1.03.7,1.55,7.09-3.27,14.41-5.88,21.87-7.83.35,1.41.7,2.81,1.06,4.22-8.37,2.18-16.55,5.21-24.4,9.1.94,1.94,1.87,3.88,2.81,5.81.33.68,1.28.9,2.13.5h0Z"/>
          <path class="cls-2" d="M116.04,21.51c-7.36,2.01-14.58,4.67-21.56,7.98-.6-1.31-1.21-2.61-1.81-3.91,17.42-8.28,36.29-12.65,55.26-13.11.01,1.46.03,2.93.04,4.39-7.51.17-15,.98-22.39,2.42.1.56.21,1.13.31,1.69,8.07-1.57,16.27-2.37,24.48-2.41.02-2.17.04-4.35.06-6.52,0-.77-.84-1.4-1.89-1.38-19.63.39-39.19,4.92-57.17,13.59-.97.47-1.48,1.41-1.14,2.09.93,1.92,1.86,3.83,2.79,5.75,7.56-3.76,15.42-6.74,23.46-8.93-.14-.55-.29-1.1-.43-1.66h0Z"/>
          <path class="cls-2" d="M90.73,39.79c-.28-.52-.56-1.03-.83-1.55-6.58,3.64-12.89,7.91-18.85,12.82-.78.64-1.01,1.64-.53,2.22,1.35,1.62,2.71,3.24,4.06,4.86,4.06-3.44,8.31-6.55,12.71-9.35-.3-.48-.6-.96-.9-1.43-3.82,2.43-7.54,5.1-11.11,8.01-.89-1.11-1.78-2.22-2.67-3.33,5.74-4.68,11.81-8.77,18.13-12.26h0Z"/>
          <path class="cls-2" d="M75.49,53.42c3.63-2.88,7.38-5.53,11.25-7.93.24.4.48.79.72,1.19,0,0,0,0-.01,0,.29.48.59.96.88,1.44,0,0,0,0,.01,0,.21.34.42.69.63,1.03-9.99,6.19-19.22,14.03-27.28,23.54-.3-.26-.61-.52-.91-.77,0,0,0,0,0,0-.42-.36-.85-.72-1.27-1.08,0,0,0,0,0,0-.35-.3-.7-.59-1.04-.89,3.12-3.69,6.4-7.13,9.84-10.34-.38-.41-.76-.82-1.14-1.23-4.06,3.8-7.92,7.93-11.54,12.39,1.62,1.32,3.24,2.65,4.86,3.97.58.47,1.54.25,2.15-.49,8.15-9.69,17.53-17.65,27.7-23.87.77-.47,1.09-1.37.71-2.03-1.07-1.83-2.15-3.67-3.22-5.5-4.62,2.75-9.09,5.84-13.38,9.25.34.44.69.88,1.04,1.32h0Z"/>
          <path class="cls-2" d="M94.87,39.64c-.97-1.92-1.93-3.84-2.9-5.77-7.8,4.01-15.27,8.88-22.25,14.59-.89-1.11-1.78-2.22-2.67-3.33,6.16-5.05,12.68-9.46,19.47-13.23-.27-.5-.54-.99-.81-1.49-7.62,4.23-14.9,9.25-21.71,15.07,1.35,1.62,2.71,3.24,4.06,4.86.48.57,1.5.5,2.29-.14,6.39-5.28,13.2-9.83,20.31-13.65.67,1.27,1.34,2.54,2,3.81-1.21.65-2.42,1.32-3.61,2.02.29.51.58,1.02.87,1.53,1.34-.78,2.69-1.53,4.06-2.25.83-.44,1.24-1.33.9-2.01h0Z"/>
          <path class="cls-2" d="M60.4,69.82c.42.37.84.73,1.26,1.1,3.61-4.16,7.44-8,11.46-11.51-1.38-1.6-2.76-3.19-4.14-4.79-.49-.57-1.5-.49-2.26.2-5.77,5.22-11.15,11.08-16.06,17.58.46.35.92.69,1.38,1.04,4.71-6.23,9.87-11.87,15.39-16.92.95,1.05,1.9,2.11,2.85,3.17-3.45,3.14-6.75,6.52-9.88,10.14Z"/>
          <path class="cls-2" d="M53.25,77.04c.99-1.36,2.01-2.69,3.04-3.99-.45-.36-.9-.71-1.36-1.07-.92,1.16-1.83,2.35-2.72,3.55-1.13-.83-2.26-1.67-3.39-2.51,5.2-7.07,10.96-13.41,17.15-19.03.76-.69.99-1.7.5-2.26-1.38-1.6-2.76-3.19-4.14-4.79-6.81,6.01-13.13,12.84-18.83,20.47.44.33.89.67,1.33,1,5.1-6.81,10.69-12.97,16.68-18.47.95,1.05,1.9,2.11,2.85,3.17-6.72,6.16-12.93,13.17-18.47,21.03,1.72,1.21,3.44,2.43,5.16,3.64.61.43,1.58.09,2.19-.74h0Z"/>
          <path class="cls-2" d="M61.38,52.07c-5.88,5.52-11.35,11.69-16.33,18.51-1.13-.83-2.27-1.67-3.4-2.5,12.41-17.04,27.83-30.17,44.88-39.38.67,1.27,1.34,2.54,2,3.81-6.75,3.64-13.24,7.92-19.38,12.82.35.44.69.88,1.04,1.33,6.71-5.36,13.84-9.96,21.28-13.78-.96-1.9-1.91-3.81-2.87-5.71-.34-.68-1.39-.83-2.34-.32-17.68,9.46-33.64,23.05-46.41,40.78-.68.95-.74,2.08-.13,2.51,1.71,1.2,3.41,2.4,5.12,3.6,5.32-7.59,11.25-14.39,17.67-20.42-.38-.41-.76-.82-1.14-1.24h0Z"/>
          <path class="cls-2" d="M162.34,29.4c-.06.58-.13,1.15-.19,1.73,5.03.5,10.04,1.32,14.98,2.46.52-2.13,1.04-4.27,1.55-6.4.19-.76-.43-1.55-1.37-1.75-7.21-1.54-14.53-2.45-21.88-2.72-.03.6-.05,1.2-.08,1.8,7.05.26,14.08,1.12,21,2.57-.32,1.44-.64,2.88-.97,4.33-4.31-.91-8.67-1.58-13.05-2.01Z"/>
          <path class="cls-2" d="M153.26,27.71c1.51.03,3.02.1,4.53.18.04-.6.08-1.2.12-1.8-1.35-.08-2.69-.14-4.04-.17.05-1.46.11-2.93.17-4.39,7.89.2,15.77,1.13,23.52,2.78.95.2,1.87-.24,2.06-.99.52-2.13,1.04-4.27,1.56-6.4-8.43-1.91-17.01-3-25.61-3.28-.03.58-.06,1.15-.08,1.73,7.68.25,15.34,1.16,22.88,2.72-.32,1.44-.65,2.89-.97,4.33-8.45-1.76-17.05-2.67-25.65-2.73-.04,2.19-.09,4.39-.13,6.58-.01.77.72,1.4,1.64,1.43h0Z"/>
          <path class="cls-2" d="M176.61,19.31c-7.47-1.47-15.05-2.28-22.64-2.45.05-1.46.11-2.93.16-4.39,5.69.12,11.37.59,17.02,1.42,10.41,1.53,20.68,4.25,30.56,8.18-.57,1.38-1.14,2.75-1.71,4.13-4.52-1.8-9.12-3.35-13.79-4.63-.16.56-.33,1.12-.49,1.68,5.37,1.48,10.66,3.31,15.84,5.49.89-2.03,1.77-4.05,2.65-6.08.32-.72-.22-1.64-1.22-2.04-2.87-1.16-5.78-2.21-8.71-3.17-13.2-4.3-26.95-6.57-40.71-6.79-1.06-.02-1.92.61-1.93,1.38-.04,2.17-.08,4.35-.12,6.52,8.29.04,16.57.86,24.73,2.46.12-.57.24-1.14.36-1.71h0Z"/>
          <path class="cls-2" d="M216.59,30.52c-1.35-.75-2.7-1.47-4.07-2.17-.28.52-.55,1.04-.82,1.57,1.7.87,3.38,1.77,5.04,2.72.76.22,1.52.04,1.85-.52.6-1,1.2-2.01,1.79-3.01-2.12-1.23-4.27-2.4-6.44-3.5-.27.51-.54,1.03-.81,1.54,1.39.71,2.76,1.44,4.13,2.2-.22.39-.45.79-.67,1.18Z"/>
          <path class="cls-2" d="M255.6,66.26c1.27,1.63,2.51,3.29,3.72,4.99.49-.35.98-.7,1.46-1.05-.97-1.37-1.97-2.71-2.98-4.03.37-.28.73-.56,1.1-.84,1.03,1.34,2.04,2.71,3.03,4.1.48-.34.96-.68,1.44-1.02-1.55-2.18-3.15-4.29-4.79-6.34-.93.74-1.86,1.48-2.78,2.22-.51.41-.57,1.22-.2,1.98h0Z"/>
          <path class="cls-2" d="M205.05,26.75c1.74.77,3.46,1.57,5.17,2.42.26-.53.53-1.05.8-1.58-1.37-.68-2.76-1.33-4.15-1.96.19-.41.38-.82.58-1.23,1.41.64,2.82,1.3,4.21,1.99.26-.52.53-1.03.79-1.55-2.18-1.08-4.39-2.1-6.62-3.05-.47,1.06-.95,2.13-1.42,3.19-.26.58.03,1.3.65,1.77h0Z"/>
          <path class="cls-2" d="M237.89,45.24c-4.64-3.93-9.5-7.5-14.53-10.69-.32.5-.64.99-.97,1.49,4.25,2.71,8.38,5.68,12.36,8.92-.96,1.16-1.92,2.33-2.87,3.49-5.95-4.85-12.25-9.09-18.8-12.71-.3.53-.61,1.06-.91,1.59,6.64,3.67,13,7.98,19,12.93.78.65,1.83.69,2.35.09,1.46-1.7,2.91-3.4,4.37-5.11h0Z"/>
          <path class="cls-2" d="M232.64,45.14c-3.94-3.13-8.02-6.01-12.23-8.62.8-1.27,1.61-2.53,2.41-3.8,11.64,7.22,22.4,16.37,31.8,27.46-.33.28-.65.55-.98.83,0,0,0,0,0,0-.46.39-.92.77-1.37,1.16,0,0,0,0,0,0-.38.32-.75.63-1.13.95-3.39-4.01-6.96-7.76-10.7-11.24-.41.43-.82.87-1.22,1.3,4.3,4.02,8.38,8.39,12.21,13.11,1.75-1.42,3.5-2.84,5.25-4.26.62-.5.54-1.64-.21-2.53-9.78-11.64-21.02-21.19-33.22-28.67-.93-.57-2.02-.46-2.43.21-1.16,1.9-2.31,3.8-3.47,5.7,4.89,2.91,9.62,6.18,14.16,9.79.37-.46.74-.93,1.12-1.39h0Z"/>
          <path class="cls-2" d="M208.43,43.83c-.29.51-.58,1.03-.87,1.54,6.65,3.69,13,8.08,18.95,13.17,1.46-1.7,2.91-3.4,4.37-5.11.52-.6.31-1.63-.46-2.27-6.33-5.23-13.07-9.73-20.11-13.52.72-1.31,1.44-2.62,2.16-3.93,1.29.69,2.57,1.4,3.84,2.14.32-.53.63-1.05.95-1.57-1.47-.85-2.94-1.67-4.44-2.46-.91-.48-1.95-.3-2.32.4-1.04,1.98-2.09,3.97-3.13,5.95,7.51,3.86,14.7,8.54,21.42,14.04-.96,1.17-1.92,2.33-2.87,3.49-5.53-4.53-11.38-8.49-17.47-11.87h0Z"/>
          <path class="cls-2" d="M251.29,61.02c.45-.39.91-.78,1.36-1.17-4.12-4.76-8.5-9.15-13.09-13.17-1.48,1.68-2.97,3.36-4.45,5.04-.53.6-.33,1.63.43,2.32,5.82,5.27,11.24,11.18,16.19,17.72.49-.38.99-.75,1.48-1.13-4.89-6.47-10.24-12.32-15.97-17.55,1.02-1.11,2.04-2.22,3.06-3.34,3.83,3.49,7.5,7.25,10.99,11.28h0Z"/>
          <path class="cls-2" d="M251.71,76.91c1.86-1.32,3.73-2.63,5.59-3.95.66-.46.66-1.58,0-2.49-1.08-1.49-2.19-2.94-3.33-4.36-.49.39-.97.78-1.45,1.17.98,1.23,1.94,2.49,2.88,3.77-1.22.9-2.45,1.8-3.67,2.71-5.15-7-10.85-13.28-16.99-18.84-.75-.68-1.8-.74-2.33-.14-1.48,1.68-2.97,3.36-4.45,5.04,5.94,5.25,11.46,11.21,16.43,17.88.48-.36.96-.72,1.44-1.08-4.57-6.12-9.59-11.64-14.97-16.58,1.02-1.11,2.04-2.23,3.07-3.34,6.47,5.93,12.44,12.67,17.77,20.24h0Z"/>
          <path class="cls-2" d="M234.19,58.51c-.41.43-.82.87-1.22,1.3,5.4,5.08,10.44,10.75,15.01,17.02-1.23.9-2.45,1.8-3.68,2.7-10.63-14.61-23.85-25.87-38.46-33.78.72-1.31,1.44-2.62,2.16-3.93,6.21,3.35,12.17,7.28,17.81,11.79.37-.46.75-.93,1.12-1.39-6.34-5.07-13.08-9.41-20.11-13.03-1.03,1.96-2.07,3.93-3.1,5.89-.37.7-.02,1.6.77,2.02,14.72,7.89,28.02,19.22,38.64,33.99.57.79,1.56,1.07,2.21.61,1.85-1.3,3.7-2.6,5.55-3.9-5.03-7.17-10.64-13.61-16.7-19.3h0Z"/>
          <path class="cls-2" d="M199.25,24.36c.22-.54.44-1.09.66-1.63-5.46-2.11-11.02-3.84-16.67-5.21-.55,2.13-1.11,4.25-1.66,6.38-.2.76.42,1.56,1.35,1.8,7.21,1.87,14.28,4.38,21.12,7.54.26-.55.52-1.1.78-1.66-6.75-3.11-13.73-5.61-20.85-7.48.4-1.43.8-2.85,1.2-4.28,4.75,1.25,9.45,2.77,14.07,4.55h0Z"/>
          <path class="cls-2" d="M206.15,37.55c1.02-1.99,2.04-3.99,3.06-5.98.36-.7-.09-1.64-1.02-2.09-1.52-.73-3.04-1.42-4.58-2.09-.25.56-.49,1.11-.74,1.67,1.33.58,2.65,1.18,3.97,1.8-.66,1.34-1.31,2.68-1.97,4.02-7.18-3.42-14.63-6.12-22.24-8.09-.93-.24-1.86.19-2.05.94-.55,2.13-1.11,4.25-1.66,6.38,7.32,1.81,14.5,4.33,21.42,7.57.25-.53.51-1.06.76-1.59-6.35-2.96-12.91-5.33-19.61-7.12.4-1.43.8-2.85,1.2-4.28,8.04,2.13,15.91,5.09,23.45,8.86h0Z"/>
          <path class="cls-2" d="M183.21,31.84c6.76,1.88,13.39,4.36,19.79,7.43-.66,1.34-1.32,2.68-1.98,4.02-4.47-2.15-9.06-4-13.72-5.55-8.61-2.86-17.51-4.69-26.48-5.49.15-1.46.29-2.93.44-4.39,4.41.39,8.79,1.01,13.14,1.88.12-.57.24-1.14.36-1.71-5.15-1.02-10.35-1.71-15.58-2.07-.18,2.17-.35,4.34-.53,6.52-.06.77.6,1.45,1.47,1.52,2.54.22,5.07.51,7.59.9,11.36,1.73,22.49,5.15,32.98,10.27.8.39,1.74.15,2.1-.55,1.02-1.97,2.03-3.94,3.05-5.92-7.13-3.59-14.55-6.43-22.14-8.54-.16.56-.33,1.12-.49,1.68Z"/>
        </g>
        <g>
          <path class="cls-2" d="M33.6,126.63c.44.09.87.17,1.3.26-.27,1.28-.51,2.56-.74,3.85.56.09,1.12.18,1.68.28.34-1.96.73-3.91,1.18-5.85-1.11-.24-2.23-.49-3.34-.73-.61-.13-1.24.23-1.56.85-.36,1.64-.68,3.29-.97,4.94.57.09,1.14.19,1.71.28.23-1.29.48-2.58.74-3.87h0Z"/>
          <path class="cls-2" d="M49.19,84.81c-.23.67-.06,1.36.47,1.69.95.6,1.9,1.21,2.84,1.81,1.09-1.7,2.24-3.37,3.43-5.01-.45-.32-.91-.65-1.36-.97-.78,1.08-1.54,2.17-2.28,3.27-.36-.24-.73-.48-1.09-.72.75-1.11,1.51-2.2,2.3-3.29-.46-.33-.92-.66-1.38-1-1.01,1.39-1.98,2.79-2.92,4.21h0Z"/>
          <path class="cls-2" d="M30.2,136.66c.1.69.57,1.22,1.2,1.29,1.14.11,2.28.23,3.42.34.22-1.98.49-3.95.8-5.92-.56-.09-1.12-.17-1.68-.26-.21,1.29-.4,2.58-.57,3.88-.44-.05-.88-.1-1.32-.16.17-1.3.36-2.6.57-3.9-.57-.09-1.14-.18-1.71-.27-.27,1.66-.51,3.32-.71,4.99h0Z"/>
          <path class="cls-2" d="M27.51,125.88c1.43-6.91,3.45-13.7,6.03-20.28,1.36.52,2.71,1.04,4.07,1.55-1.61,4.11-2.98,8.29-4.13,12.54.56.14,1.11.29,1.67.43,1.31-4.88,2.94-9.68,4.87-14.37-2-.81-3.99-1.61-5.99-2.42-.71-.29-1.59.2-1.94,1.1-2.73,6.85-4.85,13.92-6.34,21.11.59.11,1.17.22,1.76.34h0Z"/>
          <path class="cls-2" d="M35.82,107.89c-.54-.2-1.07-.4-1.61-.59-1.86,4.91-3.41,9.93-4.63,15.02,2.11.48,4.23.97,6.34,1.45.75.17,1.52-.38,1.74-1.23,2.83-11.23,7.35-22.05,13.48-32.05.46-.76.33-1.69-.32-2.1-1.81-1.13-3.62-2.27-5.44-3.4-2.85,4.48-5.39,9.12-7.62,13.88.52.24,1.04.47,1.56.71,1.88-4.03,3.98-7.96,6.31-11.78.4.24.8.48,1.2.72h0c.49.29.98.59,1.46.88h0c.35.21.7.42,1.04.62-6,9.86-10.45,20.52-13.3,31.57-1.42-.35-2.83-.7-4.25-1.06,1.11-4.28,2.45-8.51,4.02-12.65h0Z"/>
          <path class="cls-2" d="M28.65,129.81c.77.12,1.51-.51,1.68-1.42.28-1.49.59-2.96.93-4.44-.58-.13-1.17-.25-1.75-.37-.3,1.31-.58,2.63-.84,3.95-1.44-.26-2.88-.53-4.31-.79,1.52-7.75,3.76-15.36,6.69-22.72.36-.9.09-1.86-.62-2.15-2-.81-3.99-1.61-5.99-2.42-3.29,7.89-5.82,16.07-7.57,24.41.57.11,1.13.22,1.7.33,1.56-7.43,3.74-14.74,6.54-21.82,1.36.52,2.71,1.04,4.07,1.55-3.16,8.03-5.51,16.35-7.02,24.82,2.16.36,4.33.71,6.49,1.07h0Z"/>
          <path class="cls-2" d="M46.2,89.58c-2.27,3.82-4.32,7.76-6.15,11.78-1.32-.59-2.65-1.18-3.97-1.76,2.93-6.46,6.43-12.68,10.47-18.6-.49-.33-.97-.66-1.46-.99-4.22,6.16-7.85,12.65-10.87,19.39-.4.88-.13,1.84.57,2.14,1.98.84,3.96,1.67,5.95,2.51,2.01-4.66,4.32-9.21,6.93-13.61-.49-.29-.98-.57-1.47-.86h0Z"/>
          <path class="cls-2" d="M50.33,81.17c.54-.77.49-1.74-.12-2.18-1.75-1.26-3.5-2.51-5.25-3.77-5.17,7.07-9.57,14.61-13.15,22.48-1.33-.59-2.65-1.18-3.97-1.76,3.21-7.02,7.04-13.79,11.47-20.21-.47-.32-.94-.63-1.41-.95-4.97,7.19-9.19,14.81-12.64,22.74,1.98.84,3.96,1.67,5.95,2.51.71.3,1.59-.19,1.99-1.08,3.25-7.24,7.2-14.2,11.81-20.77,1.18.82,2.37,1.63,3.55,2.45-.79,1.12-1.55,2.26-2.3,3.4.49.32.99.64,1.48.96.84-1.29,1.7-2.56,2.59-3.81h0Z"/>
          <path class="cls-2" d="M29.82,95.23c.52.24,1.04.48,1.56.71,3.54-7.54,7.82-14.78,12.82-21.58-1.73-1.25-3.46-2.49-5.19-3.74-.61-.45-1.63-.11-2.26.77-11.63,16.23-19.44,34.72-23.19,54-.2,1.04.27,1.98,1.03,2.1,2.14.35,4.29.71,6.43,1.06,1.44-8.07,3.64-16.02,6.57-23.7-.54-.2-1.07-.4-1.61-.6-2.69,7.03-4.76,14.27-6.22,21.64-1.44-.26-2.88-.53-4.31-.79,3.7-18.6,11.24-36.45,22.39-52.19,1.18.82,2.36,1.64,3.55,2.46-4.46,6.3-8.32,12.96-11.56,19.87h0Z"/>
          <path class="cls-2" d="M29.4,155.4c-1.48.07-2.95.14-4.43.21-.24-7.07.12-14.14,1.07-21.13-.59-.08-1.19-.15-1.78-.23-.99,7.28-1.36,14.65-1.07,22.02.04.96.71,1.71,1.49,1.65,2.19-.14,4.38-.29,6.57-.43-.27-5.06-.22-10.14.15-15.18-.58-.04-1.16-.07-1.74-.11-.33,4.39-.41,8.79-.26,13.2Z"/>
          <path class="cls-2" d="M29.55,132.96c.14-.91-.36-1.74-1.12-1.86-2.17-.33-4.34-.67-6.51-1-1.42,8.49-2,17.11-1.71,25.74-1.48.07-2.95.14-4.43.21-.25-7.7.17-15.4,1.24-23.01-.57-.07-1.15-.14-1.72-.22-1.2,8.52-1.6,17.16-1.17,25.79,2.19-.14,4.38-.29,6.57-.43.78-.05,1.37-.89,1.33-1.85-.3-7.92.14-15.84,1.3-23.65,1.45.2,2.9.39,4.36.59-.2,1.33-.37,2.67-.52,4.01.6.06,1.19.13,1.79.19.17-1.5.37-3,.6-4.5h0Z"/>
          <path class="cls-2" d="M17.27,154.53c.58-.02,1.16-.04,1.75-.06-.18-8.31.43-16.61,1.82-24.78-2.15-.33-4.3-.67-6.44-1-.76-.12-1.53.62-1.69,1.67-2.14,13.6-2.26,27.53-.29,41.27.44,3.05.98,6.1,1.63,9.12.22,1.05,1.04,1.74,1.8,1.55,2.15-.52,4.3-1.05,6.45-1.57-1.26-5.47-2.15-11-2.69-16.54-.58.07-1.16.13-1.74.19.46,4.81,1.2,9.61,2.2,14.38-1.45.33-2.91.65-4.36.98-2.18-10.41-3.11-20.99-2.82-31.51.15-5.7.66-11.38,1.52-17.01,1.45.2,2.9.4,4.36.6-1.14,7.51-1.63,15.11-1.47,22.73h0Z"/>
          <path class="cls-2" d="M20.18,196.31c-.51-1.48-1-2.96-1.46-4.45-.55.18-1.1.36-1.65.53.72,2.33,1.5,4.65,2.35,6.95,1.09-.42,2.19-.83,3.28-1.25.6-.23.91-.95.83-1.73-.65-1.8-1.25-3.61-1.81-5.43-.56.18-1.12.36-1.68.54.45,1.46.93,2.92,1.44,4.38-.43.15-.85.31-1.28.46Z"/>
          <path class="cls-2" d="M49.98,240.41c-.69-.49-1.5-.57-1.99-.14-.89.79-1.77,1.57-2.66,2.36,1.74,1.97,3.55,3.91,5.43,5.81.42-.42.84-.83,1.26-1.25-1.2-1.21-2.37-2.44-3.52-3.69.34-.31.68-.63,1.02-.94,1.13,1.22,2.28,2.43,3.46,3.63.43-.42.86-.84,1.29-1.26-1.47-1.49-2.9-3-4.28-4.53h0Z"/>
          <path class="cls-2" d="M19.72,183.83c-.36-.69-1.01-1.1-1.63-.94-1.13.28-2.26.57-3.38.85.56,2.36,1.18,4.71,1.87,7.04.55-.17,1.11-.34,1.66-.51-.44-1.49-.85-2.99-1.24-4.49.44-.12.87-.24,1.31-.36.38,1.48.79,2.95,1.22,4.42.56-.17,1.13-.34,1.69-.51-.54-1.83-1.04-3.66-1.5-5.5h0Z"/>
          <path class="cls-2" d="M32.3,219.35c1.93-1.14,3.85-2.28,5.78-3.43.68-.41.82-1.45.32-2.33-3.85-6.76-7-13.77-9.48-20.94-.58.21-1.15.42-1.73.62,2.44,7.08,5.54,14.01,9.3,20.7-1.31.74-2.62,1.49-3.93,2.23-2.51-4.47-4.73-9.05-6.67-13.71-.55.23-1.09.46-1.63.7,2.29,5.5,4.97,10.9,8.04,16.15h0Z"/>
          <path class="cls-2" d="M33.1,214.16c.52-.29,1.04-.57,1.56-.86-2.78-5.09-5.19-10.31-7.22-15.63-2.07.81-4.14,1.63-6.21,2.44-.74.29-1.03,1.34-.62,2.35,5.28,13.3,12.76,26.02,22.55,37.64.74.88,1.85,1.16,2.45.64,1.7-1.48,3.4-2.96,5.1-4.44-3.99-4.58-7.6-9.36-10.82-14.28-.5.33-.99.65-1.49.98,2.79,4.28,5.87,8.44,9.24,12.47-.38.32-.75.63-1.13.95,0,0,0,0,0,0-.46.38-.92.77-1.38,1.15,0,0,0,0,0,0-.33.28-.66.55-.98.82-9.31-11.16-16.48-23.32-21.6-36.03,1.39-.57,2.77-1.15,4.16-1.72,1.85,4.59,3.99,9.11,6.4,13.53h0Z"/>
          <path class="cls-2" d="M35.96,190.09c2.29,6.59,5.18,13.03,8.7,19.25-1.31.74-2.62,1.49-3.94,2.23-4.26-7.57-7.64-15.45-10.16-23.51-2.13.69-4.27,1.38-6.4,2.06-.75.24-1.12,1.23-.8,2.21.52,1.6,1.08,3.2,1.67,4.79.57-.22,1.14-.44,1.71-.66-.51-1.38-.99-2.76-1.45-4.15,1.42-.49,2.83-.97,4.25-1.46,2.52,7.58,5.81,15,9.87,22.13.5.88,1.48,1.25,2.16.85,1.93-1.14,3.85-2.28,5.78-3.43-3.99-6.73-7.22-13.74-9.72-20.93-.56.2-1.11.4-1.67.59h0Z"/>
          <path class="cls-2" d="M45.55,235.26c-3.37-4.12-6.44-8.39-9.23-12.76,1.27-.81,2.54-1.63,3.81-2.45,4.17,6.54,9.02,12.82,14.55,18.74.46-.42.91-.84,1.37-1.27-5.6-5.99-10.49-12.36-14.69-18.99-.55-.86-1.53-1.24-2.21-.82-1.91,1.17-3.82,2.35-5.73,3.52,3.17,5.22,6.75,10.28,10.73,15.16.46-.38.92-.76,1.39-1.14h0Z"/>
          <path class="cls-2" d="M61.14,238.4c-6.54-6.55-12.16-13.59-16.89-20.98,1.27-.81,2.54-1.63,3.82-2.45,3.94,6.15,8.53,12.04,13.77,17.59.44-.41.87-.82,1.31-1.23-5.72-6.05-10.64-12.5-14.8-19.26-1.91,1.17-3.82,2.35-5.73,3.52-.68.41-.8,1.46-.26,2.32,4.43,7,9.64,13.69,15.65,19.96-1.1,1.05-2.2,2.1-3.3,3.16-1.1-1.15-2.17-2.31-3.22-3.49-.47.41-.93.82-1.4,1.23,1.21,1.36,2.45,2.7,3.73,4.03.78.81,1.89,1,2.46.43,1.62-1.61,3.23-3.22,4.85-4.83h0Z"/>
          <path class="cls-2" d="M46.02,217.98c4.57,6.95,9.95,13.58,16.15,19.76,1.6-1.6,3.2-3.2,4.79-4.8.57-.57.46-1.59-.22-2.29-12.73-13-21.62-28.05-26.86-43.9-.28-.85-1.11-1.34-1.86-1.1-2.11.68-4.22,1.36-6.34,2.04,2.36,7.55,5.48,14.94,9.39,22.05.52-.29,1.04-.58,1.56-.86-3.48-6.33-6.33-12.88-8.57-19.57,1.42-.49,2.83-.97,4.25-1.46,5.28,15.75,14.11,30.7,26.68,43.68-1.1,1.05-2.19,2.11-3.29,3.16-5.39-5.58-10.12-11.51-14.19-17.71-.5.33-1,.66-1.49.98h0Z"/>
          <path class="cls-2" d="M18.35,177.7c-.97-4.85-1.65-9.74-2.07-14.64,1.47-.15,2.95-.3,4.42-.44.63,7.33,1.89,14.63,3.8,21.82.59-.16,1.18-.32,1.76-.48-1.93-7.28-3.2-14.67-3.8-22.09-.08-.97-.76-1.7-1.54-1.64-2.19.18-4.38.36-6.57.54.38,5.79,1.14,11.58,2.28,17.31.57-.12,1.15-.25,1.72-.37h0Z"/>
          <path class="cls-2" d="M30.17,186.77c-2.42-8.08-3.98-16.33-4.71-24.62,1.47-.15,2.95-.3,4.42-.44.61,6.9,1.82,13.78,3.65,20.54.57-.16,1.13-.32,1.7-.48-2-7.37-3.25-14.87-3.78-22.4-2.19.18-4.38.36-6.57.54-.78.06-1.36.9-1.28,1.86.64,7.83,2.02,15.64,4.16,23.3-1.43.42-2.87.83-4.3,1.25-.39-1.4-.75-2.81-1.09-4.22-.59.15-1.18.29-1.77.44.39,1.63.82,3.25,1.27,4.87.28.99,1.13,1.6,1.88,1.36,2.14-.66,4.28-1.33,6.42-1.99h0Z"/>
          <path class="cls-2" d="M26.74,163.37c.77,7.84,2.31,15.64,4.62,23.28,2.12-.66,4.23-1.32,6.35-1.99.75-.24,1.15-1.12.9-1.98-3.24-11.21-4.7-22.77-4.46-34.25.05-2.55.19-5.1.42-7.63.08-.87-.48-1.64-1.25-1.71-2.17-.2-4.34-.4-6.51-.59-.54,5.21-.75,10.45-.63,15.7.58-.02,1.16-.04,1.74-.06-.11-4.43.03-8.86.4-13.27,1.47.11,2.93.21,4.4.32-.75,8.98-.48,18.06.86,27.03.73,4.86,1.76,9.7,3.12,14.47-1.43.42-2.87.84-4.3,1.26-1.93-6.84-3.23-13.79-3.93-20.77-.58.07-1.16.13-1.74.2Z"/>
        </g>
        <g>
          <path class="cls-2" d="M165.37,268.42c-.07-.44-.13-.88-.2-1.31,1.29-.18,2.58-.39,3.87-.61-.1-.56-.21-1.12-.31-1.67-1.96.34-3.93.64-5.9.88.15,1.13.3,2.26.45,3.39.08.62.63,1.09,1.33,1.18,1.66-.22,3.32-.47,4.97-.76-.1-.57-.21-1.14-.32-1.7-1.29.23-2.59.43-3.89.61h0Z"/>
          <path class="cls-2" d="M120.74,267.96c.7-.01,1.3-.41,1.43-1.01.25-1.1.49-2.19.74-3.29-1.97-.45-3.93-.96-5.88-1.52-.15.54-.3,1.07-.45,1.61,1.28.37,2.57.71,3.85,1.04-.1.42-.21.85-.31,1.27-1.29-.33-2.59-.67-3.87-1.04-.16.54-.31,1.09-.47,1.63,1.64.48,3.3.91,4.95,1.31h0Z"/>
          <path class="cls-2" d="M110.93,261.96c1.27.44,2.54.85,3.81,1.24.16-.53.32-1.07.48-1.6-1.94-.59-3.88-1.24-5.79-1.94-.38,1.05-.76,2.1-1.14,3.16-.21.58.08,1.24.68,1.64,1.62.58,3.25,1.12,4.88,1.62.16-.54.33-1.08.49-1.63-1.28-.39-2.56-.81-3.83-1.25.14-.41.28-.82.42-1.23Z"/>
          <path class="cls-2" d="M69.32,240.74c.67.37,1.41.34,1.81-.11.73-.83,1.45-1.65,2.18-2.48-1.65-1.45-3.26-2.95-4.85-4.51-.38.39-.77.77-1.15,1.16,1.04,1.03,2.1,2.03,3.17,3-.29.31-.58.63-.86.94-1.07-.98-2.13-1.99-3.18-3.02-.39.39-.78.79-1.17,1.18,1.34,1.32,2.69,2.6,4.07,3.84h0Z"/>
          <path class="cls-2" d="M175.96,268.21c.61-.32.96-.96.8-1.57-.28-1.11-.56-2.22-.84-3.33-1.94.47-3.88.89-5.84,1.25.11.56.22,1.11.33,1.67,1.28-.24,2.56-.5,3.84-.79.1.43.2.87.3,1.3-1.28.28-2.57.55-3.86.79.11.57.22,1.14.33,1.7,1.65-.31,3.3-.65,4.94-1.03h0Z"/>
          <path class="cls-2" d="M166.73,274.4c-6.98,1-14.05,1.41-21.13,1.21.03-1.45.05-2.9.08-4.35,4.41.12,8.81-.01,13.19-.38-.05-.57-.11-1.15-.16-1.72-5.04.42-10.11.53-15.17.3-.08,2.15-.16,4.3-.24,6.45-.03.77.73,1.42,1.69,1.45,7.37.24,14.74-.17,22.01-1.21-.09-.59-.19-1.18-.28-1.77h0Z"/>
          <path class="cls-2" d="M146.99,272.69c0,.57,0,1.14-.01,1.72,5.25.08,10.49-.17,15.7-.75-.26-2.15-.52-4.3-.79-6.45-.09-.76-.88-1.3-1.75-1.22-11.52,1.15-23.24.58-34.72-1.79-.87-.18-1.7.27-1.87,1.01-.45,2.09-.9,4.18-1.35,6.27,5.18,1.16,10.4,1.97,15.65,2.45.05-.57.09-1.14.14-1.71-4.43-.4-8.84-1.04-13.23-1.94.09-.46.18-.92.27-1.37h0c.11-.56.22-1.12.33-1.67h0c.08-.4.16-.8.24-1.2,11.32,2.29,22.85,2.86,34.21,1.78.15,1.45.3,2.9.45,4.36-4.4.41-8.83.58-13.26.52h0Z"/>
          <path class="cls-2" d="M170.04,272c-.14-.76-.99-1.25-1.9-1.1-1.49.24-2.99.45-4.49.63.08.59.16,1.18.24,1.77,1.34-.16,2.67-.35,4-.55.24,1.44.48,2.88.72,4.33-7.81,1.2-15.72,1.68-23.64,1.42-.97-.03-1.78.55-1.81,1.32-.08,2.15-.16,4.3-.24,6.45,8.54.41,17.09.01,25.52-1.17-.09-.57-.18-1.14-.26-1.71-7.52,1.06-15.13,1.49-22.74,1.26.03-1.45.05-2.9.08-4.36,8.62.25,17.25-.37,25.72-1.83-.4-2.16-.8-4.31-1.2-6.47h0Z"/>
          <path class="cls-2" d="M126.25,269.15c4.37.84,8.76,1.43,13.17,1.78-.1,1.44-.21,2.89-.31,4.33-7.07-.56-14.11-1.74-21.05-3.53-.15.57-.29,1.14-.44,1.71,7.23,1.87,14.57,3.08,21.93,3.64.96.07,1.78-.5,1.82-1.26.11-2.15.23-4.3.34-6.45-5.07-.3-10.13-.93-15.15-1.89-.1.56-.21,1.12-.31,1.68h0Z"/>
          <path class="cls-2" d="M116.94,268.12c-.9-.25-1.8.13-2.01.86-.59,2.07-1.17,4.14-1.76,6.21,8.41,2.47,16.99,4.03,25.61,4.73-.1,1.45-.21,2.89-.31,4.34-7.69-.63-15.36-1.93-22.9-3.92-.14.55-.28,1.1-.42,1.65,8.45,2.23,17.05,3.61,25.68,4.16.11-2.15.23-4.3.34-6.45.04-.76-.72-1.43-1.69-1.51-7.91-.6-15.8-1.95-23.55-4.05.37-1.39.73-2.78,1.1-4.17,1.32.36,2.65.69,3.98,1.01.13-.57.27-1.15.4-1.72-1.49-.35-2.98-.73-4.47-1.14h0Z"/>
          <path class="cls-2" d="M137.13,282.64c.05-.57.09-1.14.14-1.71-8.3-.77-16.56-2.33-24.65-4.73-.58,2.05-1.17,4.1-1.75,6.15-.21.73.45,1.57,1.49,1.86,19.22,5.42,39.26,6.49,58.66,3.47,1.04-.16,1.77-.92,1.63-1.68-.4-2.14-.79-4.27-1.19-6.41-8.08,1.39-16.3,2.02-24.52,1.87,0,.57,0,1.15-.01,1.72,7.53.14,15.04-.37,22.47-1.5.24,1.44.48,2.88.72,4.33-18.75,2.84-38.1,1.81-56.69-3.33.37-1.39.74-2.78,1.11-4.17,7.44,2.05,15.01,3.42,22.61,4.13h0Z"/>
          <path class="cls-2" d="M109.03,269.02c-6.83-2.34-13.52-5.31-19.98-8.93.68-1.25,1.37-2.49,2.05-3.74,4.03,2.25,8.14,4.24,12.33,5.97.21-.52.42-1.05.64-1.57-4.82-1.99-9.54-4.32-14.14-7-1.05,1.83-2.1,3.66-3.15,5.49-.38.65.03,1.59.91,2.09,6.71,3.8,13.67,6.92,20.78,9.36.18-.56.37-1.11.55-1.67h0Z"/>
          <path class="cls-2" d="M91.66,258.24c-.26.5-.53.99-.79,1.48,4.82,2.62,9.75,4.88,14.78,6.79.74-1.99,1.48-3.99,2.22-5.98.26-.71-.21-1.54-1.05-1.87-11.09-4.37-21.71-10.58-31.41-18.71-.74-.62-1.72-.67-2.21-.11-1.37,1.59-2.73,3.17-4.1,4.75,4.34,3.77,8.86,7.16,13.52,10.2.3-.47.6-.94.9-1.41-3.94-2.56-7.77-5.39-11.48-8.48.29-.35.58-.71.87-1.06,0,0,0,0,0,0,.35-.43.71-.86,1.06-1.29,0,0,0,0,0,0,.25-.31.51-.61.76-.92,9.59,7.96,20.03,14.09,30.94,18.45-.15.38-.3.75-.44,1.13,0,0,0,0-.01,0-.21.53-.41,1.05-.62,1.58,0,0,0,0,.01,0-.17.43-.34.86-.51,1.29-4.23-1.7-8.38-3.65-12.45-5.86h0Z"/>
          <path class="cls-2" d="M113.14,268.45c.22-.73-.34-1.54-1.23-1.83-1.47-.47-2.93-.98-4.39-1.51-.2.55-.39,1.1-.59,1.66,1.3.48,2.6.93,3.91,1.36-.44,1.37-.88,2.73-1.31,4.1-7.66-2.53-15.16-5.83-22.37-9.92-.88-.5-1.9-.39-2.28.26-1.05,1.83-2.1,3.66-3.15,5.49,7.72,4.55,15.76,8.24,24,11.08.18-.53.36-1.07.54-1.61-7.35-2.53-14.53-5.74-21.47-9.65.69-1.25,1.37-2.5,2.05-3.74,7.87,4.42,16.06,7.91,24.45,10.51.62-2.06,1.24-4.12,1.86-6.18h0Z"/>
          <path class="cls-2" d="M85.44,252.98c-.75,1.2-1.5,2.41-2.25,3.61-6.31-4.01-12.37-8.67-18.09-13.99-.39.42-.79.84-1.18,1.26,5.96,5.55,12.27,10.39,18.86,14.53.86.54,1.88.45,2.26-.2,1.08-1.81,2.16-3.62,3.24-5.43-4.57-2.77-9.01-5.88-13.28-9.35-.35.43-.7.87-1.05,1.3,3.71,3.02,7.55,5.78,11.49,8.27Z"/>
          <path class="cls-2" d="M65.66,238.84c-.74-.71-1.76-.87-2.28-.35-1.49,1.49-2.97,2.99-4.45,4.48,6.82,6.78,14.14,12.61,21.83,17.51-.75,1.2-1.5,2.41-2.26,3.61-6.86-4.38-13.43-9.48-19.63-15.3-.38.41-.76.81-1.13,1.22,6.94,6.53,14.35,12.16,22.1,16.9,1.08-1.81,2.16-3.62,3.24-5.43.38-.64-.01-1.6-.88-2.14-7.08-4.46-13.84-9.71-20.19-15.77.97-1.02,1.94-2.04,2.91-3.06,1.09,1.03,2.18,2.04,3.29,3.03.38-.43.77-.86,1.15-1.29-1.25-1.1-2.48-2.24-3.69-3.41h0Z"/>
          <path class="cls-2" d="M77.99,262.01c.3-.47.6-.94.91-1.41-7.37-4.82-14.39-10.49-20.95-17.05-1.47,1.48-2.95,2.95-4.42,4.43-.53.52-.28,1.63.56,2.45,15.65,15.25,33.73,25.87,52.78,32.12,1.02.34,2.03,0,2.25-.72.61-2.04,1.22-4.08,1.84-6.12-7.99-2.48-15.82-5.77-23.35-9.88-.26.5-.53.99-.79,1.49,6.89,3.77,14.03,6.86,21.31,9.27-.44,1.36-.88,2.73-1.31,4.1-18.39-6.12-35.85-16.38-51.02-31.01.97-1.02,1.94-2.03,2.92-3.05,6.08,5.85,12.55,10.98,19.29,15.4h0Z"/>
          <path class="cls-2" d="M193.86,262.6c.57,1.36,1.13,2.73,1.7,4.09-6.57,2.63-13.34,4.69-20.24,6.17.13.58.26,1.17.39,1.76,7.19-1.54,14.24-3.7,21.07-6.47.89-.36,1.36-1.25,1.05-1.96-.88-2.01-1.76-4.02-2.64-6.03-4.67,1.98-9.46,3.65-14.33,5.01.16.56.32,1.11.49,1.67,4.24-1.18,8.41-2.6,12.5-4.24Z"/>
          <path class="cls-2" d="M172.71,270.08c-.9.18-1.52.93-1.37,1.69.42,2.15.85,4.31,1.27,6.46,8.46-1.55,16.77-3.93,24.79-7.13.57,1.36,1.14,2.73,1.7,4.09-7.16,2.85-14.55,5.07-22.06,6.65.13.56.25,1.13.38,1.69,8.42-1.77,16.69-4.33,24.66-7.67-.88-2.01-1.76-4.02-2.64-6.03-.31-.71-1.3-.99-2.2-.62-7.35,2.97-14.94,5.25-22.68,6.82-.31-1.43-.62-2.86-.93-4.3,1.32-.27,2.64-.56,3.95-.87-.14-.58-.29-1.17-.43-1.75-1.47.35-2.95.67-4.43.97h0Z"/>
          <path class="cls-2" d="M197.16,274.3c-.22-.54-.44-1.08-.65-1.62-7.75,2.99-15.77,5.24-23.93,6.71.41,2.13.83,4.27,1.24,6.4.14.76,1.1,1.23,2.14,1.03,13.52-2.61,26.66-7.22,38.92-13.75,2.72-1.45,5.4-2.99,8.03-4.63.91-.57,1.28-1.57.84-2.22-1.22-1.84-2.45-3.69-3.67-5.53-4.72,3.04-9.61,5.76-14.64,8.15.26.52.52,1.05.77,1.57,4.37-2.07,8.63-4.39,12.77-6.95.8,1.26,1.6,2.51,2.4,3.77-9.05,5.59-18.69,10.05-28.68,13.36-5.41,1.79-10.93,3.24-16.51,4.35-.31-1.43-.61-2.87-.92-4.3,7.45-1.48,14.77-3.6,21.88-6.34h0Z"/>
          <path class="cls-2" d="M235.46,257.37c-1.22.98-2.45,1.94-3.69,2.88.35.46.71.92,1.06,1.37,1.95-1.47,3.86-2.99,5.74-4.57-.76-.89-1.53-1.77-2.29-2.66-.42-.49-1.2-.54-1.91-.19-1.47,1.22-2.97,2.4-4.49,3.55.36.47.72.93,1.08,1.4,1.22-.92,2.43-1.87,3.63-2.84.29.35.58.7.87,1.05Z"/>
          <path class="cls-2" d="M266.82,214.37c-.22.81-.03,1.6.54,1.92,1.04.57,2.08,1.13,3.12,1.7,1.26-2.31,2.47-4.67,3.62-7.08-.53-.25-1.07-.51-1.6-.76-.73,1.54-1.49,3.06-2.28,4.56-.41-.21-.82-.42-1.23-.64.77-1.47,1.52-2.97,2.24-4.49-.54-.26-1.08-.52-1.62-.78-.9,1.89-1.83,3.74-2.8,5.56h0Z"/>
          <path class="cls-2" d="M223.88,262.04c-.53.57-.69,1.32-.33,1.85.65.96,1.3,1.93,1.95,2.89,2.03-1.33,4.03-2.71,5.99-4.15-.35-.46-.7-.92-1.05-1.39-1.25.92-2.52,1.82-3.8,2.69-.26-.37-.52-.74-.78-1.11,1.26-.86,2.51-1.75,3.74-2.65-.35-.47-.71-.94-1.06-1.42-1.54,1.13-3.09,2.22-4.67,3.28h0Z"/>
          <path class="cls-2" d="M253.02,238.14c-1.73-1.42-3.46-2.85-5.19-4.27-.62-.5-1.64-.28-2.3.5-5.05,5.92-10.57,11.26-16.47,16.03.39.47.78.94,1.17,1.41,5.83-4.7,11.3-9.97,16.31-15.78,1.15.98,2.29,1.96,3.44,2.94-3.36,3.88-6.91,7.52-10.63,10.93.4.43.81.87,1.21,1.3,4.4-4.02,8.56-8.37,12.45-13.05h0Z"/>
          <path class="cls-2" d="M247.86,239.15c-.45-.39-.89-.78-1.34-1.17-3.84,4.35-7.94,8.38-12.24,12.1,1.47,1.67,2.94,3.34,4.41,5.01.52.59,1.61.51,2.43-.21,10.71-9.48,20.13-20.84,27.74-33.99.58-1,.47-2.14-.24-2.52-1.97-1.09-3.94-2.19-5.91-3.28-2.95,5.31-6.22,10.32-9.76,15.03.48.36.95.71,1.43,1.07,3.07-4.08,5.94-8.39,8.59-12.93.43.25.85.49,1.28.74,0,0,0,0,0,0,.52.3,1.04.6,1.55.9,0,0,0,0,0,0,.37.21.74.43,1.11.64-7.33,12.54-16.34,23.42-26.55,32.55-1.01-1.11-2.02-2.22-3.03-3.33,3.69-3.3,7.21-6.84,10.55-10.61h0Z"/>
          <path class="cls-2" d="M224.25,244.64c5.42-4.39,10.49-9.3,15.15-14.72,1.15.98,2.29,1.96,3.44,2.94-5.67,6.58-11.93,12.44-18.66,17.54,1.37,1.77,2.74,3.54,4.11,5.32.48.63,1.54.63,2.35,0,1.33-1.04,2.65-2.1,3.94-3.19-.4-.46-.8-.92-1.2-1.39-1.12.95-2.26,1.87-3.41,2.78-.94-1.17-1.87-2.33-2.81-3.5,6.28-4.95,12.13-10.56,17.46-16.8.66-.77.68-1.81.06-2.32-1.73-1.42-3.46-2.85-5.19-4.27-4.98,6.04-10.47,11.46-16.38,16.25.37.46.75.91,1.12,1.37h0Z"/>
          <path class="cls-2" d="M263.48,220.27c-2.73,4.57-5.7,8.91-8.87,13.02-1.2-.92-2.4-1.84-3.6-2.76,4.73-6.15,8.99-12.84,12.68-20.05-.55-.29-1.1-.57-1.66-.86-3.73,7.31-8.06,14.07-12.87,20.26-.63.81-.64,1.86-.02,2.36,1.75,1.4,3.5,2.79,5.26,4.19,3.83-4.76,7.38-9.84,10.61-15.24-.51-.31-1.03-.61-1.54-.92h0Z"/>
          <path class="cls-2" d="M261.14,204.55c-3.94,8.37-8.65,16.05-13.99,23.01-1.2-.92-2.4-1.84-3.6-2.76,4.44-5.8,8.42-12.11,11.87-18.93-.53-.27-1.07-.54-1.6-.81-3.75,7.43-8.15,14.25-13.09,20.46,1.75,1.4,3.5,2.79,5.26,4.19.62.5,1.64.26,2.27-.54,5.08-6.54,9.6-13.71,13.46-21.5,1.36.68,2.72,1.35,4.09,2.03-.71,1.42-1.44,2.83-2.19,4.21.55.3,1.09.6,1.63.9.87-1.6,1.71-3.22,2.52-4.87.5-1.01.3-2.11-.43-2.45-2.06-.97-4.13-1.95-6.19-2.92h0Z"/>
          <path class="cls-2" d="M247.08,225.71c4.99-6.66,9.39-13.97,13.1-21.9-2.05-.96-4.09-1.92-6.14-2.88-.73-.34-1.65.1-2.08.98-7.91,16.39-19.03,29.86-32.16,40.18-.7.55-.89,1.5-.41,2.12,1.36,1.75,2.72,3.51,4.08,5.26,6.3-4.78,12.19-10.23,17.55-16.32-.45-.39-.89-.78-1.34-1.18-4.77,5.42-9.97,10.33-15.5,14.7-.94-1.17-1.87-2.33-2.81-3.5,13.02-10.32,24.08-23.7,32.02-39.93,1.36.67,2.73,1.35,4.09,2.02-3.42,6.97-7.39,13.43-11.83,19.36.48.36.96.71,1.43,1.07h0Z"/>
          <path class="cls-2" d="M218.59,265.41c-4.24,2.56-8.6,4.87-13.07,6.92-.64-1.34-1.28-2.67-1.92-4.01,6.68-3.08,13.12-6.75,19.23-10.98-.35-.5-.7-1-1.05-1.5-6.19,4.29-12.72,7.99-19.49,11.08-.88.4-1.34,1.3-1.02,2.01.91,2,1.83,4,2.74,5.99,5.32-2.33,10.5-5.01,15.51-8.02-.31-.5-.62-1-.93-1.5h0Z"/>
          <path class="cls-2" d="M223.09,251.21c-6.78,5.02-14.01,9.3-21.56,12.79-.64-1.34-1.28-2.67-1.92-4.01,6.28-2.92,12.34-6.39,18.07-10.41-.34-.48-.68-.96-1.03-1.44-6.25,4.38-12.88,8.11-19.78,11.17.91,2,1.83,4,2.74,5.99.32.71,1.3.97,2.18.57,7.15-3.27,14.02-7.22,20.5-11.83.88,1.21,1.76,2.41,2.64,3.62-1.19.84-2.38,1.66-3.6,2.46.34.51.68,1.01,1.02,1.52,1.4-.92,2.78-1.87,4.15-2.85.84-.6,1.12-1.6.64-2.23-1.35-1.79-2.7-3.57-4.05-5.36h0Z"/>
          <path class="cls-2" d="M202.26,262.39c7.11-3.39,13.92-7.48,20.33-12.25-1.34-1.77-2.68-3.53-4.03-5.3-.48-.63-1.45-.7-2.17-.18-9.44,6.86-19.81,12.16-30.7,15.83-2.42.82-4.86,1.55-7.32,2.2-.85.22-1.38,1.01-1.18,1.76.55,2.11,1.1,4.22,1.65,6.33,5.08-1.26,10.09-2.84,14.98-4.74-.22-.54-.43-1.08-.65-1.62-4.13,1.61-8.34,2.98-12.62,4.13-.4-1.42-.8-2.83-1.19-4.25,8.7-2.34,17.14-5.69,25.13-10,4.33-2.33,8.52-4.95,12.55-7.85.88,1.21,1.76,2.41,2.64,3.62-5.77,4.14-11.87,7.72-18.21,10.75.26.52.52,1.05.78,1.57Z"/>
        </g>
        <g>
          <path class="cls-2" d="M264.51,179.82c-.43-.11-.86-.23-1.28-.34.35-1.26.68-2.52.99-3.79-.55-.13-1.11-.26-1.66-.39-.47,1.93-.99,3.86-1.55,5.76,1.1.32,2.19.63,3.29.95.6.17,1.25-.15,1.61-.75.46-1.61.9-3.23,1.29-4.86-.56-.13-1.12-.26-1.69-.39-.31,1.28-.64,2.55-.99,3.81h0Z"/>
          <path class="cls-2" d="M268.56,170.03c-.05-.69-.49-1.26-1.11-1.36-1.13-.19-2.26-.37-3.39-.56-.35,1.96-.74,3.91-1.18,5.85.55.12,1.11.24,1.66.37.29-1.27.56-2.55.82-3.84.44.08.88.16,1.31.24-.25,1.29-.53,2.57-.82,3.86.56.13,1.13.25,1.69.38.38-1.64.72-3.28,1.03-4.93h0Z"/>
          <path class="cls-2" d="M270.54,180.97c-1.88,6.8-4.33,13.44-7.34,19.85-1.32-.61-2.64-1.21-3.96-1.81,1.87-3.99,3.51-8.08,4.93-12.24-.55-.18-1.09-.36-1.64-.54-1.63,4.79-3.56,9.47-5.79,14.03,1.94.93,3.88,1.87,5.82,2.8.69.33,1.6-.1,2.01-.97,3.16-6.66,5.74-13.57,7.7-20.66-.58-.15-1.16-.3-1.73-.45h0Z"/>
          <path class="cls-1" d="M262.13,206.95c-3.46,6.53-7.5,12.77-12.11,18.65-.46-.36-.93-.72-1.39-1.08,4.42-5.64,8.31-11.63,11.65-17.88-1.28-.67-2.57-1.34-3.85-2.02-2.08,3.9-4.38,7.69-6.9,11.36-.47-.32-.94-.64-1.41-.95,2.89-4.22,5.49-8.6,7.8-13.13,1.92.96,3.85,1.93,5.77,2.89.69.34.88,1.32.43,2.17Z"/>
          <path class="cls-1" d="M250.05,220.62c-1.73-1.25-3.47-2.5-5.2-3.75-.62-.45-.69-1.39-.18-2.11,3.41-4.82,6.42-9.88,9.02-15.12l1.6.78c-2.57,5.17-5.53,10.15-8.87,14.92.33.23.67.46,1,.69,0,0,0,0,0,0,.47.32.94.65,1.4.97,0,0,0,0,0,0,.38.27.77.53,1.15.8,2.57-3.66,4.93-7.45,7.06-11.35.5.27,1,.54,1.51.81-2.53,4.61-5.37,9.08-8.5,13.36Z"/>
          <path class="cls-1" d="M274.12,209.61c-4.48,8.89-9.94,17.33-16.33,25.13-.68.83-1.72,1.1-2.3.62-1.65-1.36-3.29-2.71-4.93-4.07,5.43-6.46,10.17-13.4,14.19-20.7.5.27,1.01.54,1.51.81h0c-3.69,6.69-7.97,13.08-12.83,19.08,1.13.89,2.25,1.79,3.38,2.68,6.14-7.57,11.39-15.74,15.71-24.33l1.6.78Z"/>
          <path class="cls-2" d="M268.24,184.4c-1.55,5-3.42,9.91-5.59,14.68-.52-.23-1.04-.47-1.57-.7h0c1.84-4.03,3.45-8.16,4.83-12.36-1.39-.44-2.78-.89-4.17-1.33-1.77,5.38-3.92,10.64-6.45,15.73l-1.6-.78c2.57-5.17,4.74-10.51,6.51-15.98.27-.83,1.08-1.33,1.81-1.12,2.08.62,4.15,1.24,6.23,1.86Z"/>
          <path class="cls-2" d="M269.66,176.97c-.76-.17-1.54.41-1.77,1.3-.38,1.46-.78,2.92-1.22,4.37.57.16,1.15.33,1.72.49.39-1.29.75-2.59,1.09-3.89,1.42.36,2.84.71,4.25,1.07-2.02,7.63-4.75,15.08-8.15,22.24-.42.88-.21,1.85.48,2.19,1.94.93,3.88,1.87,5.82,2.8,3.79-7.66,6.85-15.66,9.13-23.86-.56-.15-1.11-.29-1.67-.44-2.03,7.32-4.69,14.46-7.94,21.35-1.32-.6-2.64-1.21-3.96-1.81,3.68-7.81,6.56-15.96,8.61-24.31-2.14-.5-4.27-.99-6.41-1.49h0Z"/>
          <polygon class="cls-2" points="249.54 215.98 249.54 215.98 249.54 215.98 249.54 215.98"/>
          <path class="cls-2" d="M284.43,182.36c-2.47,9.4-5.92,18.54-10.31,27.25l-1.6-.78c4.24-8.41,7.59-17.23,10.01-26.3-1.42-.36-2.84-.71-4.25-1.07-1.93,7.26-4.47,14.35-7.61,21.19-.52-.23-1.05-.47-1.57-.7,3.42-7.48,6.13-15.26,8.09-23.23,2.12.49,4.23.98,6.35,1.48.75.17,1.16,1.14.89,2.16Z"/>
          <path class="cls-2" d="M270.57,151.38c1.48.02,2.95.05,4.43.08-.22,7.07-1.04,14.11-2.44,21.02.59.11,1.18.23,1.76.34,1.46-7.2,2.3-14.53,2.5-21.9.02-.96-.6-1.75-1.38-1.75-2.19,0-4.39,0-6.59,0-.05,5.07-.43,10.13-1.13,15.14.57.07,1.15.15,1.73.22.61-4.36.98-8.75,1.11-13.16Z"/>
          <path class="cls-2" d="M268.97,173.76c-.2.9.24,1.76,1,1.93,2.14.47,4.29.95,6.43,1.42,1.97-8.38,3.1-16.95,3.38-25.57,1.48.03,2.96.05,4.43.08-.25,7.7-1.17,15.36-2.73,22.88.57.11,1.13.22,1.7.33,1.75-8.43,2.71-17.02,2.83-25.66-2.19,0-4.39,0-6.59,0-.78,0-1.42.79-1.45,1.76-.21,7.92-1.16,15.8-2.83,23.52-1.44-.29-2.87-.58-4.31-.87.28-1.32.54-2.64.78-3.96-.59-.1-1.18-.2-1.77-.31-.27,1.49-.56,2.97-.89,4.45h0Z"/>
          <path class="cls-2" d="M282.62,153.04c-.58-.02-1.16-.03-1.75-.05-.36,8.31-1.51,16.55-3.42,24.61,2.12.47,4.24.95,6.37,1.42.75.17,1.57-.52,1.8-1.55,3.01-13.43,4.04-27.32,2.96-41.17-.24-3.07-.58-6.15-1.03-9.21-.16-1.06-.93-1.8-1.7-1.66-2.18.38-4.36.77-6.54,1.15.9,5.54,1.44,11.12,1.61,16.68.58-.03,1.17-.05,1.75-.08-.15-4.83-.57-9.67-1.26-14.49,1.47-.23,2.94-.46,4.42-.69,1.5,10.53,1.74,21.15.77,31.63-.52,5.68-1.4,11.31-2.62,16.87-1.44-.29-2.87-.59-4.31-.88,1.62-7.42,2.61-14.98,2.94-22.59h0Z"/>
          <path class="cls-2" d="M282.42,111.16c.42,1.51.8,3.02,1.17,4.53.56-.14,1.12-.28,1.69-.43-.56-2.37-1.2-4.73-1.89-7.08-1.12.35-2.24.69-3.35,1.04-.61.19-.97.89-.94,1.68.53,1.84,1.01,3.68,1.46,5.54.57-.15,1.14-.29,1.72-.43-.36-1.49-.74-2.98-1.15-4.46.43-.13.87-.25,1.31-.38Z"/>
          <path class="cls-2" d="M282.07,123.65c.31.71.94,1.16,1.57,1.04,1.14-.21,2.29-.42,3.43-.63-.41-2.39-.88-4.77-1.41-7.15-.56.13-1.13.27-1.69.4.34,1.52.66,3.04.95,4.56-.44.09-.89.18-1.33.27-.28-1.5-.6-3-.93-4.49-.57.13-1.15.27-1.72.4.42,1.86.8,3.72,1.14,5.59h0Z"/>
          <path class="cls-2" d="M271.82,87.38c-2,1.01-3.99,2.03-5.99,3.04-.71.36-.91,1.4-.47,2.31,3.4,7,6.1,14.2,8.1,21.51.59-.17,1.18-.34,1.76-.51-1.98-7.22-4.62-14.34-7.94-21.26,1.36-.66,2.71-1.31,4.07-1.97,2.21,4.63,4.13,9.34,5.76,14.11.56-.2,1.12-.39,1.68-.59-1.93-5.64-4.25-11.19-6.98-16.63h0Z"/>
          <path class="cls-1" d="M265.58,70.57l-1.54,1.05-1.06.72-1.48,1.01-1.22.83-1.48,1.01c-1.35-1.99-2.77-3.96-4.26-5.91,1.79-1.37,3.58-2.74,5.37-4.11.64-.49,1.72-.14,2.41.79,1.12,1.52,2.2,3.06,3.25,4.6Z"/>
          <path class="cls-1" d="M247.36,67.23c2.84,3.37,5.46,6.84,7.88,10.39l-1.54,1.05c-2.84-4.17-5.98-8.23-9.42-12.16h0c1.72-1.5,3.43-3.01,5.15-4.51.6-.53,1.7-.27,2.42.59,1.19,1.4,2.34,2.82,3.46,4.26-.49.38-.98.76-1.47,1.14-.97-1.24-1.96-2.47-2.99-3.69-1.16.98-2.33,1.96-3.49,2.94Z"/>
          <path class="cls-1" d="M243.21,67.09c3.48,3.95,6.65,8.04,9.51,12.24l-1.48,1.01-1.3.89-1.48,1.01-.97.66-1.54,1.05c-2.37-3.45-4.95-6.82-7.76-10.08-.64-.74-.67-1.76-.07-2.3,1.7-1.49,3.4-2.98,5.09-4.48Z"/>
          <path class="cls-1" d="M250.74,66.53c2.5,3.06,4.84,6.19,7.01,9.38l-1.54,1.05c-2.14-3.15-4.45-6.24-6.92-9.25.48-.39.97-.78,1.45-1.17Z"/>
          <path class="cls-2" d="M260.29,74.18c2.04,3.01,3.94,6.06,5.69,9.17-.52.3-1.03.59-1.55.88-1.73-3.06-3.6-6.08-5.62-9.04l1.48-1.01Z"/>
          <path class="cls-2" d="M281.62,107.3c-2.12.68-4.24,1.36-6.36,2.03-1.68-5.44-3.74-10.8-6.19-16.06.54-.25,1.07-.51,1.61-.76,2.12,4.57,3.95,9.21,5.51,13.91,1.42-.48,2.84-.97,4.26-1.45-3.8-11.55-9.24-22.77-16.4-33.35l1.54-1.05c7.38,10.91,12.95,22.5,16.81,34.42.33,1.04-.02,2.07-.78,2.31Z"/>
          <path class="cls-2" d="M266.27,116.34c-1.86-6.72-4.33-13.34-7.44-19.77,1.36-.66,2.71-1.32,4.07-1.97,3.77,7.83,6.63,15.91,8.61,24.12,2.17-.55,4.35-1.1,6.52-1.65.77-.19,1.19-1.16.94-2.16-.42-1.64-.87-3.27-1.35-4.89-.58.18-1.17.37-1.75.55.42,1.41.81,2.82,1.18,4.23-1.44.39-2.89.79-4.33,1.18-2.03-7.73-4.82-15.34-8.41-22.73-.44-.91-1.39-1.35-2.1-.98-2,1.01-3.99,2.03-5.99,3.04,3.54,6.98,6.32,14.18,8.34,21.52.57-.16,1.13-.32,1.7-.48h0Z"/>
          <path class="cls-2" d="M270.81,85.42c-1.98,1.05-3.96,2.1-5.94,3.14-.71.37-1.66-.06-2.15-.96-1.97-3.62-4.14-7.17-6.5-10.65l1.54-1.05c2.28,3.36,4.38,6.78,6.3,10.26,1.32-.73,2.64-1.46,3.96-2.19-1.98-3.61-4.15-7.15-6.5-10.63l1.48-1.01c2.89,4.26,5.49,8.63,7.82,13.08Z"/>
          <path class="cls-2" d="M261.27,90.46c-1.98,1.05-3.96,2.1-5.94,3.14-2.05-3.87-4.34-7.67-6.87-11.37l1.48-1.01c2.12,3.11,4.08,6.28,5.86,9.51,1.32-.73,2.64-1.46,3.97-2.2-1.85-3.35-3.87-6.64-6.07-9.87l1.54-1.05c2.35,3.44,4.49,6.96,6.45,10.55.49.89.3,1.93-.41,2.3Z"/>
          <path class="cls-2" d="M256.49,88.74c-1.62-2.85-3.37-5.65-5.25-8.4l1.48-1.01c1.91,2.79,3.68,5.64,5.32,8.53-.52.29-1.04.59-1.55.88Z"/>
          <polygon class="cls-2" points="258.04 87.86 258.04 87.86 258.05 87.86 258.04 87.86"/>
          <path class="cls-2" d="M270.39,119c-2.15.54-4.3,1.09-6.46,1.63-.77.19-1.56-.36-1.78-1.22-3.21-12.34-8.57-24.34-16.2-35.46l1.54-1.05c7.64,11.15,13.03,23.17,16.3,35.52,1.44-.39,2.89-.79,4.33-1.18-1.8-6.82-4.22-13.54-7.28-20.09.54-.25,1.08-.51,1.61-.76,3.44,7.35,6.07,14.93,7.94,22.61Z"/>
          <path class="cls-2" d="M283.04,129.84c.65,4.91,1.02,9.83,1.12,14.74-1.48.05-2.96.11-4.44.16-.15-7.35-.94-14.72-2.38-22.02-.6.12-1.19.24-1.79.37,1.46,7.39,2.24,14.85,2.36,22.29.02.97.65,1.75,1.43,1.74,2.2-.04,4.39-.08,6.59-.11,0-5.81-.39-11.63-1.15-17.42-.58.08-1.16.17-1.74.26h0Z"/>
          <path class="cls-2" d="M271.83,120.04c1.89,8.22,2.92,16.56,3.1,24.88-1.48.05-2.96.1-4.44.16-.16-6.93-.93-13.86-2.31-20.73-.58.12-1.15.24-1.73.37,1.52,7.48,2.28,15.05,2.32,22.6,2.2-.04,4.39-.08,6.59-.11.78-.01,1.42-.81,1.4-1.77-.14-7.86-1.01-15.73-2.64-23.52,1.46-.32,2.92-.65,4.37-.97.3,1.42.57,2.85.82,4.28.6-.11,1.2-.22,1.8-.33-.29-1.65-.6-3.3-.95-4.94-.21-1.01-1.02-1.67-1.79-1.48-2.18.52-4.36,1.05-6.53,1.57h0Z"/>
          <path class="cls-2" d="M273.74,143.6c-.26-7.87-1.29-15.75-3.1-23.53-2.16.52-4.31,1.05-6.47,1.57-.77.19-1.22,1.04-1.03,1.91,2.51,11.39,3.22,23.02,2.23,34.47-.22,2.54-.52,5.07-.91,7.59-.13.87.37,1.67,1.14,1.79,2.15.34,4.31.68,6.46,1.01.88-5.16,1.43-10.38,1.64-15.63-.58-.02-1.16-.03-1.74-.05-.18,4.43-.6,8.84-1.26,13.21-1.46-.2-2.91-.4-4.37-.61,1.33-8.91,1.64-17.99.89-27.03-.41-4.9-1.13-9.79-2.17-14.64,1.46-.33,2.91-.65,4.37-.98,1.48,6.95,2.33,13.97,2.57,20.99.58-.03,1.17-.05,1.75-.08Z"/>
          <line class="cls-1" x1="253.69" y1="199.64" x2="250.96" y2="198.3"/>
          <line class="cls-1" x1="272.52" y1="208.83" x2="255.29" y2="200.42"/>
          <line class="cls-1" x1="276.19" y1="210.62" x2="274.12" y2="209.61"/>
          <line class="cls-1" x1="245.95" y1="83.94" x2="243.24" y2="85.79"/>
          <line class="cls-1" x1="253.7" y1="78.66" x2="252.72" y2="79.33"/>
          <line class="cls-1" x1="256.21" y1="76.95" x2="255.24" y2="77.62"/>
          <line class="cls-1" x1="258.81" y1="75.18" x2="257.75" y2="75.91"/>
          <line class="cls-1" x1="267.04" y1="69.58" x2="265.58" y2="70.57"/>
        </g>
      </g>
    </g>
  </g>
</svg>