<svg width="64" height="64" viewBox="0 0 64 64" fill="none" xmlns="http://www.w3.org/2000/svg">
<circle cx="32" cy="32" r="32" transform="matrix(-1 0 0 1 64 0)" fill="#27899E"/>
<path d="M27.048 24.0519C28.3671 22.7509 30.1453 22.0215 31.998 22.0215C33.8507 22.0215 35.629 22.7509 36.948 24.0519C39.98 27.0869 38.648 30.7379 37.38 33.2209C37.204 33.5639 37.007 33.8989 36.801 34.2259L32.843 40.5309C32.753 40.6743 32.6281 40.7925 32.48 40.8744C32.3318 40.9564 32.1653 40.9993 31.996 40.9993C31.8267 40.9993 31.6602 40.9564 31.5121 40.8744C31.3639 40.7925 31.239 40.6743 31.149 40.5309L27.149 34.1609C26.973 33.8779 26.802 33.5879 26.649 33.2919C25.362 30.7879 24 27.0999 27.048 24.0519ZM28.432 32.3769C28.558 32.6239 28.701 32.8649 28.848 33.0989L32 38.1199L35.112 33.1639C35.286 32.8869 35.454 32.6039 35.603 32.3119C37.208 29.1669 37.188 27.1189 35.537 25.4659C34.5928 24.5391 33.3226 24.0199 31.9995 24.0199C30.6764 24.0199 29.4062 24.5391 28.462 25.4659C26.8 27.1289 26.791 29.1999 28.432 32.3769Z" fill="white"/>
<path d="M32 26C32.5933 26 33.1734 26.1759 33.6667 26.5056C34.1601 26.8352 34.5446 27.3038 34.7716 27.8519C34.9987 28.4001 35.0581 29.0033 34.9424 29.5853C34.8266 30.1672 34.5409 30.7018 34.1213 31.1213C33.7018 31.5409 33.1672 31.8266 32.5853 31.9424C32.0033 32.0581 31.4001 31.9987 30.8519 31.7716C30.3038 31.5446 29.8352 31.1601 29.5056 30.6667C29.1759 30.1734 29 29.5933 29 29C29 28.2044 29.3161 27.4413 29.8787 26.8787C30.4413 26.3161 31.2043 26 32 26ZM32 30C32.1978 30 32.3911 29.9414 32.5556 29.8315C32.72 29.7216 32.8482 29.5654 32.9239 29.3827C32.9996 29.2 33.0194 28.9989 32.9808 28.8049C32.9422 28.6109 32.847 28.4327 32.7071 28.2929C32.5673 28.153 32.3891 28.0578 32.1951 28.0192C32.0011 27.9806 31.8 28.0004 31.6173 28.0761C31.4346 28.1518 31.2784 28.28 31.1685 28.4444C31.0586 28.6089 31 28.8022 31 29C31 29.2652 31.1054 29.5196 31.2929 29.7071C31.4804 29.8946 31.7348 30 32 30Z" fill="white"/>
</svg>
