<svg width="64" height="64" viewBox="0 0 64 64" fill="none" xmlns="http://www.w3.org/2000/svg">
<circle cx="32" cy="32" r="32" fill="#27899E"/>
<path d="M42.191 35.489L42.153 34.662L35.67 33.736L34.355 36.31C32.9666 35.5283 31.6974 34.5517 30.586 33.41C29.4316 32.3004 28.4479 31.0259 27.667 29.628L30.467 28.228L27.667 21.708L26.907 21.818C25.6199 21.9953 24.4274 22.593 23.515 23.518C20.342 26.687 21.585 32.9 26.343 37.657C29.325 40.638 32.876 42.239 35.894 42.238C36.7376 42.2674 37.5785 42.1274 38.367 41.8263C39.1556 41.5252 39.8757 41.0691 40.485 40.485C41.1074 39.8208 41.5814 39.0319 41.8755 38.1705C42.1696 37.3092 42.2772 36.3951 42.191 35.489ZM39.071 39.071C36.771 41.371 31.59 40.071 27.757 36.243C23.924 32.415 22.629 27.229 24.929 24.929C25.3578 24.4945 25.8825 24.1667 26.461 23.972L27.881 27.285L26.774 27.838C26.5342 27.9581 26.3209 28.125 26.1466 28.3288C25.9723 28.5326 25.8405 28.7693 25.7591 29.0248C25.6776 29.2803 25.6481 29.5495 25.6723 29.8166C25.6966 30.0837 25.774 30.3433 25.9 30.58C26.7754 32.1482 27.8761 33.5794 29.167 34.828C30.416 36.1045 31.8415 37.1952 33.4 38.067C33.6403 38.1974 33.9042 38.2785 34.1762 38.3054C34.4482 38.3324 34.7229 38.3047 34.984 38.224C35.2394 38.1445 35.4761 38.014 35.6796 37.8404C35.8831 37.6668 36.0493 37.4537 36.168 37.214L36.815 35.92L40.182 36.401C40.1436 37.3954 39.7494 38.3429 39.071 39.071Z" fill="white"/>
</svg>
